<svg fill="none" height="1183" viewBox="0 0 194 1183" width="194" xmlns="http://www.w3.org/2000/svg" xmlns:xlink="http://www.w3.org/1999/xlink"><linearGradient id="a"><stop offset="0" stop-color="#7f00ff" stop-opacity=".62"/><stop offset=".239583" stop-color="#ee0979" stop-opacity=".62"/><stop offset=".489583" stop-color="#ff5e62" stop-opacity=".67"/><stop offset=".739583" stop-color="#ff6a00" stop-opacity=".46"/><stop offset="1" stop-color="#ffa800" stop-opacity=".59"/></linearGradient><linearGradient id="b" gradientUnits="userSpaceOnUse" x1="138.257" x2="138.257" xlink:href="#a" y1="-319.508" y2="1187.99"/><linearGradient id="c" gradientUnits="userSpaceOnUse" x1="148.678" x2="148.678" xlink:href="#a" y1="-200.061" y2="1147.93"/><linearGradient id="d" gradientUnits="userSpaceOnUse" x1="149" x2="149" xlink:href="#a" y1="-68.5078" y2="1114.49"/><clipPath id="e"><path d="m0 .492188h224v1182h-224z"/></clipPath><g clip-path="url(#e)"><path d="m256.514-319.508c-15.976 60.909-37.573 151.649-101.977 268.1-61.2512 110.7508-112.2032 216.427-85.3724 314.156 16.76 61.047 68.3854 125.151 108.3434 211.934 47.929 104.094 68.68 198.235 12.356 235.149-66.276 43.435-80.879-52.047-135.1726-29.207-47.35 19.92-56.1651 116.854 37.4445 162.134 68.8971 33.325 108.5881 95.482 133.3011 162.132 13.502 36.42 26.959 147.53 0 183.1" stroke="url(#b)" stroke-width="4"/><path d="m163.266 39.6711-1.75-.9695zm-76.5001 280.9149-1.9283.53zm97.0841 189.508 1.816-.838zm11.071 210.268-1.095-1.674zm-121.1241-26.117.7742 1.845zm33.5531 144.978-.869 1.801zm119.447 144.977-1.875.697zm25.913-1184.769c-14.313 54.457-33.615 135.3797-91.194 239.2706l3.499 1.939c57.843-104.3676 77.246-185.7206 91.564-240.1926zm-91.194 239.2706c-27.445 49.5204-52.665 98.0484-67.9999 145.1744-15.3398 47.142-20.8399 93.036-8.6785 137.24l3.8567-1.061c-11.8809-43.184-6.5738-88.231 8.6255-134.941 15.2042-46.727 40.2552-94.9619 67.6952-144.4734zm-76.6784 282.4144c7.5873 27.578 23.0394 55.766 40.9454 86.598 17.943 30.898 38.398 64.526 56.251 103.218l3.632-1.676c-17.953-38.908-38.531-72.74-56.424-103.55-17.93-30.875-33.1169-58.642-40.5477-85.651zm97.1964 189.816c21.443 46.474 36.718 90.549 40.393 127.023 3.676 36.481-4.277 64.825-28.601 80.733l2.19 3.347c26.147-17.1 34.132-47.35 30.391-84.481-3.742-37.137-19.237-81.692-40.741-128.298zm11.792 207.756c-14.512 9.49-25.925 11.236-35.623 9.151-9.82-2.112-18.217-8.211-26.592-15.168-8.241-6.847-16.554-14.627-25.816-19.286-9.4519-4.755-20.0046-6.343-32.7722-.984l1.5483 3.689c11.558-4.853 20.8852-3.428 29.4259.868 8.73 4.391 16.523 11.699 25.058 18.79 8.401 6.979 17.451 13.666 28.307 16.001 10.979 2.361 23.472.215 38.654-9.714zm-120.8032-26.287c-22.2768 9.352-35.075 36.508-31.8035 66.05 3.289 29.699 22.7552 62.056 65.2617 82.573l1.738-3.602c-41.3746-19.971-59.8994-51.197-63.024-79.411-3.1419-28.372 9.2239-53.461 29.3761-61.921zm33.4582 148.623c61.084 29.484 96.388 84.521 118.441 143.873l3.75-1.393c-22.236-59.845-58.064-115.968-120.453-146.082zm118.441 143.873c5.951 16.013 11.971 48.763 13.473 81.543.75 16.36.369 32.65-1.684 46.78-2.062 14.18-5.776 25.95-11.507 33.5l3.186 2.42c6.348-8.36 10.186-20.94 12.279-35.35 2.102-14.46 2.48-31.01 1.722-47.53-1.512-33-7.571-66.21-13.719-82.756z" fill="url(#c)"/><path d="m160.977 141.882-1.776-.921zm-62.8073 246.531-1.9369.499zm79.7063 166.314 1.837-.793zm9.09 184.531-1.146-1.639zm-99.444-22.919.8188 1.825zm27.547 127.233-.917 1.777zm98.068 127.232-1.889.657zm20.921-1039.7894c-11.752 47.7925-27.595 118.7933-74.857 209.9464l3.551 1.841c47.501-91.6151 63.435-163.0288 75.19-210.8322zm-74.857 209.9464c-22.533 43.461-43.247 86.063-55.841 127.436-12.5993 41.388-17.12 81.69-7.1272 120.515l3.8742-.997c-9.7467-37.867-5.3946-77.376 7.079-118.353 12.479-40.992 33.038-83.31 55.566-126.76zm-62.9682 247.951c6.2352 24.225 18.9322 48.98 33.6332 76.039 14.734 27.12 31.521 56.622 46.174 90.569l3.673-1.586c-14.744-34.155-31.645-63.857-46.332-90.892-14.721-27.096-27.179-51.446-33.274-75.127zm79.8072 166.608c17.602 40.778 30.137 79.441 33.152 111.43 3.018 32.027-3.534 56.801-23.372 70.669l2.292 3.279c21.6-15.1 28.132-41.748 25.062-74.323-3.074-32.613-15.803-71.731-33.461-112.641zm9.78 182.099c-11.854 8.287-21.096 9.762-28.897 7.968-7.945-1.826-14.775-7.112-21.656-13.223-6.74-5.985-13.61-12.858-21.265-16.974-7.859-4.226-16.674-5.644-27.2989-.876l1.6377 3.65c9.3467-4.195 16.8532-2.968 23.7662.749 7.117 3.827 13.469 10.195 20.504 16.442 6.892 6.12 14.387 12.055 23.416 14.131 9.176 2.109 19.56.167 32.085-8.588zm-99.1169-23.105c-18.4877 8.297-28.97 32.268-26.285 58.185 2.7038 26.098 18.7142 54.581 53.7339 72.65l1.834-3.555c-33.8468-17.463-49.0275-44.781-51.5892-69.507-2.5806-24.909 7.597-46.788 23.944-54.123zm27.4489 130.835c50.031 25.813 78.99 74.027 97.096 126.112l3.778-1.313c-18.257-52.522-47.697-101.863-99.04-128.354zm97.096 126.112c4.878 14.035 9.82 42.769 11.053 71.519.616 14.36.303 28.64-1.382 41.03-1.692 12.45-4.739 22.75-9.413 29.32l3.261 2.32c5.243-7.38 8.397-18.45 10.116-31.1 1.727-12.7 2.037-27.24 1.415-41.74-1.242-28.96-6.217-58.12-11.272-72.662z" fill="url(#d)"/></g></svg>