<svg fill="none" height="1368" viewBox="0 0 264 1368" width="264" xmlns="http://www.w3.org/2000/svg" xmlns:xlink="http://www.w3.org/1999/xlink"><linearGradient id="a"><stop offset="0" stop-color="#6e6efc" stop-opacity=".8"/><stop offset="1" stop-color="#1464dc" stop-opacity=".75"/></linearGradient><linearGradient id="b" gradientUnits="userSpaceOnUse" x1="175.94" x2="199.927" xlink:href="#a" y1="123.578" y2="1493.83"/><linearGradient id="c" gradientUnits="userSpaceOnUse" x1="180.546" x2="278.572" xlink:href="#a" y1="105.056" y2="1480.57"/><linearGradient id="d" gradientUnits="userSpaceOnUse" x1="168.412" x2="442.952" xlink:href="#a" y1="98.9271" y2="1468.05"/><linearGradient id="e" gradientUnits="userSpaceOnUse" x1="141.17" x2="661.964" xlink:href="#a" y1="100.024" y2="1417.85"/><path d="m155.246 382.693 1.087 1.371zm-100.0371 403.557 1.457-.969zm170.7611 270.55 1.617.67zm134.774-953.627c-16.191-.057-27.225 10.114-37.085 26.518-9.829 16.353-18.851 39.521-30.771 66.283-23.908 53.674-59.888 122.878-138.729 185.347l2.174 2.743c79.477-62.973 115.742-132.762 139.752-186.666 12.038-27.028 20.892-49.795 30.574-65.904 9.651-16.057 19.763-24.872 34.073-24.821zm-206.585 278.148c-82.1362 65.08-131.1951 130.594-147.69915 197.934-16.52005 67.407-.34299 136.315 47.29105 207.964l2.915-1.938c-47.24805-71.067-63.03405-138.979-46.80605-205.193 16.24405-66.281 64.64405-131.187 146.47315-196.024zm-100.4081 405.898c18.78 28.248 41.761 52.398 64.8881 74.431 23.202 22.1 46.363 41.91 65.894 61.79 19.489 19.84 35.051 39.45 42.946 60.87 7.865 21.33 8.169 44.58-3.125 71.82l3.233 1.34c11.613-28.01 11.363-52.17 3.176-74.37-8.156-22.13-24.142-42.17-43.733-62.11-19.549-19.9-43-39.99-65.977-61.88-23.0532-21.957-45.8182-45.899-64.3871-73.829zm170.6031 268.911c-11.397 27.5-12.497 49.19-7.558 68.42 4.919 19.16 15.793 35.71 27.968 52.93 24.377 34.48 54.343 72.17 55.54 140.56l3.5-.06c-1.218-69.59-31.845-108.1-56.182-142.52-12.182-17.23-22.694-33.32-27.436-51.78-4.721-18.38-3.754-39.3 7.401-66.21zm75.95 261.91c.553 31.59 15.495 54.51 30.121 79.51 14.651 25.03 29.198 52.44 29.916 93.47l3.5-.06c-.735-41.96-15.662-70-30.395-95.18-14.758-25.23-29.108-47.3-29.642-77.8z" fill="url(#b)"/><path d="m360.334 77.4228c-81.471-8.291-63.199 180.8932-173.277 295.8482-150.3398 157.001-197.1921 255.834-90.1938 408.445 78.8468 112.464 224.8438 148.184 185.0218 261.004-39.204 111.07 80.169 119.11 89.978 256.76 4.415 61.94 63.325 86.72 69.225 169.51" stroke="url(#c)" stroke-width="3.5"/><path d="m189.707 385.713-1.38-1.077zm-37.838 416.57-1.269 1.205zm216.532 235.527 1.711.37zm-6.259-991.6199c-13.606-1.575-24.649-.041-33.75 4.313-9.107 4.357-16.107 11.459-21.756 20.736-11.228 18.436-17.314 45.8269-24.04 78.3579-13.497 65.283-29.759 152.434-94.269 235.039l2.759 2.154c65.077-83.331 81.454-171.263 94.938-236.484 6.765-32.721 12.755-59.4369 23.601-77.2469 5.388-8.847 11.923-15.402 20.277-19.399 8.361-3.999 18.704-5.514 31.838-3.993zm-173.815 338.4459c-52.779 67.585-94.7375 137.988-107.2325 208.671-12.52 70.82 4.567 141.761 69.5055 210.181l2.539-2.409c-64.1985-67.641-80.9185-137.47-68.5985-207.163 12.345-69.828 53.8745-139.68 106.5455-207.126zm-37.727 418.852c23.77 25.045 50.826 44.994 77.577 62.642 26.856 17.71 53.132 32.94 75.877 48.85 22.677 15.87 41.417 32.14 52.954 51.59 11.489 19.38 15.906 42.03 9.683 70.87l3.421.74c6.397-29.64 1.876-53.21-10.094-73.39-11.924-20.11-31.165-36.73-53.958-52.68-22.724-15.89-49.404-31.39-75.956-48.91-26.657-17.578-53.461-37.356-76.965-62.121zm216.091 233.952c-6.279 29.09-3.469 50.63 4.84 68.66 8.276 17.96 21.943 32.29 37.009 47.05 30.168 29.55 66.412 61.26 79.86 128.32l3.431-.69c-13.684-68.24-50.722-100.63-80.841-130.13-15.076-14.76-28.303-28.7-36.28-46.01-7.943-17.24-10.744-37.99-4.598-66.46zm121.709 244.03c6.212 30.98 25.023 50.84 43.896 72.81 18.905 22 38.131 46.35 46.2 86.59l3.432-.69c-8.25-41.14-27.967-66.05-46.979-88.18-19.043-22.17-37.121-41.31-43.118-71.22z" fill="url(#d)"/><path d="m190.915 409.39-1.425-1.015zm36.71 416.671 1.03-1.415zm254.902 193.349 1.749.06zm-122.52-1019.236172c-17.044.953002-30.436 5.032002-41.032 11.926972-10.603 6.898-18.282 16.534-24.027 28.395-11.435 23.605-15.323 56.308-19.339 94.4572-8.055 76.51-16.702 176.055-86.119 273.422l2.85 2.031c70.016-98.206 78.701-198.636 86.75-275.087 4.035-38.3322 7.894-70.3562 19.007-93.2972 5.529-11.413 12.825-20.506 22.787-26.988 9.968-6.48497 22.73-10.43796 39.318-11.36496zm-170.517 408.201172c-49.83 69.893-82.639 144-81.902 216.044.738 72.161 35.125 141.937 119.006 203.056l2.061-2.829c-83.146-60.583-116.843-129.391-117.567-200.263-.726-70.99 31.624-144.367 81.252-213.977zm37.104 419.1c27.906 20.334 58.105 35.115 87.575 47.715 29.579 12.64 58.145 22.98 83.329 34.62 25.115 11.61 46.422 24.34 61.207 41.46 14.727 17.06 23.079 38.6 22.073 68.08l3.498.12c1.034-30.31-7.581-52.72-22.922-70.49-15.282-17.7-37.142-30.67-62.387-42.34-25.176-11.64-54.163-22.16-83.422-34.67-29.369-12.55-59.293-27.215-86.89-47.324zm254.184 191.875c-1.015 29.74 5.573 50.44 16.952 66.71 11.332 16.21 27.326 27.89 44.774 39.74 34.934 23.72 76.23 48.49 101.369 112.1l3.255-1.29c-25.581-64.73-67.781-90.02-102.658-113.71-17.457-11.86-32.948-23.22-43.872-38.84-10.876-15.56-17.316-35.48-16.322-64.59zm163.095 218.55c11.612 29.39 33.65 45.59 56.123 63.86 22.511 18.3 45.755 38.85 60.838 77.01l3.255-1.28c-15.422-39.03-39.248-60.04-61.885-78.44-22.676-18.44-43.866-34.07-55.076-62.44z" fill="url(#e)"/></svg>