<svg fill="none" height="2014" viewBox="0 0 374 2014" width="374" xmlns="http://www.w3.org/2000/svg" xmlns:xlink="http://www.w3.org/1999/xlink"><linearGradient id="a"><stop offset="0" stop-color="#0047ff"/><stop offset="1" stop-color="#24fe41"/></linearGradient><linearGradient id="b" gradientUnits="userSpaceOnUse" x1="-82.6308" x2="118.953" xlink:href="#a" y1="1510.25" y2="-11.1459"/><linearGradient id="c" gradientUnits="userSpaceOnUse" x1="-103.909" x2="89.0273" xlink:href="#a" y1="1426.56" y2="-29.564"/><linearGradient id="d" gradientUnits="userSpaceOnUse" x1="-120.516" x2="114.621" xlink:href="#a" y1="1089.69" y2="-14.0839"/><clipPath id="e"><path d="m0 0h374v2014h-374z"/></clipPath><g clip-path="url(#e)"><path d="m-63.8459 652.34h-1.75zm26.39 1236.69c-8.751-16.32-10.7371-37.39-7.8364-62.09 2.9029-24.72 10.7241-53.26 21.8047-84.68 22.15595-62.81 57.4802-137.46 93.0413-216.41 35.5853-79.01 71.4383-162.39 94.7703-242.86 23.339-80.49 34.092-157.87 19.654-224.94l3.422-.74c14.617 67.9 3.687 145.95-19.714 226.66-23.408 80.72-59.353 164.3-94.9411 243.32-35.6131 79.07-70.84002 153.51-92.9318 216.14-11.0433 31.31-18.7701 59.57-21.6293 83.92-2.8616 24.36-.8239 44.61 7.4447 60.02zm221.4339-830.98c-28.956-134.511-91.0873-205.784-146.0568-258.349-27.439-26.239-53.3541-48.038-72.29-70.629-19.016-22.686-31.2271-46.418-31.2271-76.732h3.5c0 29.222 11.7172 52.183 30.4094 74.484 18.7724 22.396 44.3456 43.877 72.0266 70.347 55.2707 52.853 117.9069 124.714 147.0599 260.139zm-249.5739-405.71c0-88.71 46.7544-148.755 95.789-206.677 49.1313-58.036 100.4399-113.859 111.1249-194.506l3.47.46c-10.847 81.866-62.9887 138.503-111.9236 196.307-49.0316 57.919-94.9603 117.093-94.9603 204.416zm206.9139-401.183c10.669-80.518-25.242-142.313-75.4775-189.2624-50.2729-46.9845-114.7517-78.9548-160.7924-99.6917l1.4373-3.1912c46.0943 20.761 111.0252 52.9236 161.745 100.3258 50.7576 47.4375 87.4216 110.2835 76.5576 192.2795z" fill="url(#b)"/><path d="m-83.3123 621.285-1.7419.168zm-80.9977 1152.215c64.8611-85.21 145.7141-195.34 210.3502-312.96 64.6548-117.67 112.9708-242.64 112.9708-357.57h3.5c0 115.82-48.653 241.42-113.4034 359.25-64.7682 117.87-145.7545 228.16-210.6326 313.4zm323.321-670.53c0-114.717-56.394-190.637-115.2442-260.121-58.7331-69.346-120.252-132.554-128.821-221.396l3.4839-.336c8.4387 87.493 68.9563 149.747 128.0079 219.47 58.9344 69.583 116.0734 146.337 116.0734 262.383zm-244.0652-481.517c-9.6032-99.565 34.944-156.452 84.233415-208.58 49.343785-52.186 103.067785-99.364 113.742785-179.931l3.47.46c-10.858 81.946-65.6475 130.03-114.66964 181.875-49.07646 51.903-92.74736 107.816-83.29266 205.84zm197.9762-388.511c10.669-80.518-25.2425-142.3133-75.4775-189.2625-50.2729-46.9847-114.7518-78.955-160.7925-99.692l1.437-3.1911c46.0947 20.7609 111.0255 52.92374 161.7453 100.3259 50.7577 47.4378 87.4217 110.2837 76.5577 192.2797z" fill="url(#c)"/><path d="m-146.207 581.368-1.715.349zm249.32 653.872-1.698-.42zm-11.5537-260.853c-8.298-23.511-25.8308-52.382-47.9674-84.413-22.1213-32.009-48.71554-67.001-75.0697-102.785-26.3345-35.756-52.4099-72.278-73.4062-107.247-20.983-34.945-36.975-68.469-43.038-98.225l3.43-.698c5.942 29.166 21.689 62.282 42.608 97.122 20.9062 34.817 46.8973 71.226 73.2244 106.973 26.30742 35.72 52.9697 70.803 75.1309 102.87 22.1458 32.044 39.9214 61.248 48.3885 85.238zm-239.4813-392.67c-8.671-42.559.112-75.106 18.756-102.42 18.575-27.214 46.8936-49.163 77.1052-70.699 30.2965-21.596 62.4975-42.782 89.3145-68.592 26.7725-25.767 48.0515-56.034 56.4961-95.675l3.4232.73c-8.6335 40.527-30.3901 71.383-57.4923 97.467-27.0578 26.042-59.571 47.436-89.7099 68.92-30.2239 21.545-58.0618 43.179-76.2468 69.822-18.116 26.543-26.696 58.128-18.216 99.749zm241.6718-337.386c16.9232-79.439-14.0539-143.849-60.4698-194.5774-46.4509-50.76648-108.2367-87.6736-152.518-111.9421l1.682-3.0692c44.333 24.2966 106.5544 61.43095 153.4182 112.6486 46.8988 51.2561 78.5438 116.7731 61.3108 197.6701zm-115.9393 1134.519c5.6869 8.53 13.93955 11.85 23.78828 10.2 9.99972-1.68 21.74412-8.51 33.92162-20.67 24.3217-24.28 49.8087-69.22 65.8946-133.56l3.395.85c-16.1858 64.74-41.911 110.33-66.817 135.19-12.4363 12.41-24.8096 19.8-35.81573 21.64-11.15711 1.87-20.79847-1.99-27.27817-11.7zm123.6045-144.03c13.392-53.57 19.259-95 17.631-134.84-1.628-39.83-10.754-78.18-27.4867-125.593l3.3005-1.165c16.7972 47.598 26.0362 86.308 27.6832 126.618 1.647 40.3-4.298 82.09-17.733 135.83z" fill="url(#d)"/></g></svg>