<svg fill="none" height="1511" viewBox="0 0 371 1511" width="371" xmlns="http://www.w3.org/2000/svg" xmlns:xlink="http://www.w3.org/1999/xlink"><linearGradient id="a"><stop offset="0" stop-color="#8e54e9" stop-opacity=".92"/><stop offset=".755208" stop-color="#005ae0" stop-opacity=".92"/></linearGradient><linearGradient id="b" gradientUnits="userSpaceOnUse" x1="288.376" x2="310.032" xlink:href="#a" y1="434.051" y2="1671.13"/><linearGradient id="c" gradientUnits="userSpaceOnUse" x1="301.976" x2="390.476" xlink:href="#a" y1="416.043" y2="1657.88"/><linearGradient id="d" gradientUnits="userSpaceOnUse" x1="311.62" x2="559.477" xlink:href="#a" y1="408.777" y2="1644.84"/><linearGradient id="e" gradientUnits="userSpaceOnUse" x1="314.845" x2="785.027" xlink:href="#a" y1="402.94" y2="1592.69"/><clipPath id="f"><path d="m0 .275879h371v1510h-371z"/></clipPath><g clip-path="url(#f)"><path d="m262.248 525.71 1.087 1.371zm-100.037 403.557 1.457-.969zm170.761 270.553 1.617.67zm134.774-953.629c-16.191-.058-27.225 10.114-37.085 26.517-9.829 16.353-18.851 39.521-30.771 66.283-23.908 53.674-59.888 122.878-138.729 185.347l2.174 2.743c79.477-62.973 115.742-132.762 139.752-186.666 12.038-27.028 20.892-49.795 30.574-65.904 9.651-16.057 19.763-24.871 34.073-24.82zm-206.585 278.147c-82.136 65.08-131.195 130.594-147.699 197.934-16.5201 67.407-.343 136.316 47.291 207.964l2.915-1.938c-47.248-71.067-63.034-138.979-46.806-205.193 16.244-66.281 64.644-131.187 146.473-196.024zm-100.408 405.898c18.78 28.248 41.761 52.398 64.888 74.434 23.202 22.1 46.363 41.91 65.894 61.79 19.489 19.83 35.051 39.45 42.946 60.86 7.865 21.34 8.169 44.58-3.125 71.83l3.233 1.34c11.613-28.01 11.363-52.17 3.176-74.38-8.156-22.12-24.142-42.16-43.733-62.11-19.549-19.89-43-39.98-65.977-61.87-23.053-21.96-45.818-45.902-64.387-73.832zm170.603 268.914c-11.397 27.49-12.497 49.18-7.558 68.42 4.919 19.15 15.793 35.7 27.968 52.92 24.377 34.49 54.343 72.18 55.54 140.57l3.5-.06c-1.218-69.59-31.845-108.1-56.182-142.53-12.182-17.23-22.694-33.31-27.436-51.77-4.721-18.39-3.754-39.3 7.401-66.21zm75.95 261.91c.553 31.59 15.495 54.51 30.121 79.5 14.651 25.04 29.198 52.44 29.916 93.47l3.5-.06c-.735-41.95-15.663-70-30.395-95.18-14.758-25.22-29.108-47.3-29.642-77.79z" fill="url(#b)"/><path d="m294.06 516.291-1.264-1.211zm-90.194 408.444 1.433-1.004zm185.021 261.005 1.651.59zm78.627-967.039c-10.544-1.073-19.557 1.051-27.413 5.866-7.822 4.794-14.396 12.191-20.214 21.511-11.603 18.59-20.459 45.284-30.128 75.538-19.402 60.711-42.253 136.33-96.963 193.464l2.528 2.421c55.368-57.821 78.42-134.272 97.769-194.819 9.707-30.375 18.439-56.607 29.763-74.75 5.647-9.047 11.871-15.967 19.074-20.381 7.168-4.393 15.407-6.368 25.23-5.368zm-174.718 296.379c-75.169 78.5-124.766 142.74-142.024 206.622-17.311 64.075-2.022 127.47 51.661 204.038l2.866-2.009c-53.315-76.043-68.1-138.371-51.148-201.116 17.003-62.937 66.002-126.613 141.173-205.114zm-90.363 410.66c19.829 28.283 43.859 51.71 68.06 72.679 12.1 10.481 24.259 20.371 35.957 29.931 11.707 9.57 22.949 18.81 33.26 28.06 20.641 18.5 37.392 36.86 46.557 57.48 9.126 20.54 10.787 43.46.97 71.27l3.301 1.17c10.095-28.6 8.44-52.45-1.073-73.86-9.474-21.32-26.683-40.08-47.419-58.67-10.378-9.3-21.679-18.6-33.381-28.16-11.711-9.58-23.826-19.42-35.88-29.866-24.104-20.885-47.892-44.096-67.486-72.043zm184.804 259.42c-9.906 28.07-9.841 49.78-3.878 68.73 5.938 18.86 17.684 34.8 30.765 51.35 26.191 33.12 58.135 69.16 62.997 137.38l3.491-.25c-4.948-69.42-37.595-106.23-63.742-139.3-13.089-16.56-24.448-32.05-30.173-50.24-5.7-18.1-5.855-39.03 3.841-66.5zm89.884 257.46c2.246 31.52 18.395 53.6 34.34 77.78 15.972 24.21 31.967 50.79 34.884 91.73l3.492-.25c-2.983-41.86-19.393-69.06-35.455-93.41-16.089-24.4-31.602-45.67-33.77-76.1z" fill="url(#c)"/><path d="m296.706 528.732-1.38-1.077zm-37.838 416.57-1.269 1.205zm216.532 235.528 1.711.37zm-6.259-991.621c-13.605-1.575-24.649-.041-33.75 4.313-9.107 4.357-16.107 11.459-21.756 20.736-11.228 18.436-17.314 45.827-24.04 78.358-13.497 65.283-29.759 152.435-94.269 235.039l2.759 2.154c65.077-83.331 81.454-171.263 94.938-236.484 6.765-32.721 12.755-59.437 23.601-77.247 5.388-8.847 11.923-15.402 20.277-19.399 8.361-3.999 18.704-5.514 31.838-3.993zm-173.815 338.446c-52.779 67.585-94.737 137.988-107.232 208.671-12.52 70.82 4.567 141.761 69.505 210.181l2.539-2.409c-64.198-67.641-80.918-137.47-68.598-207.162 12.345-69.829 53.874-139.681 106.545-207.127zm-37.727 418.852c23.77 25.045 50.826 44.994 77.577 62.643 26.856 17.71 53.132 32.94 75.877 48.85 22.677 15.86 41.418 32.14 52.954 51.59 11.49 19.38 15.906 42.03 9.683 70.87l3.421.74c6.397-29.64 1.876-53.21-10.094-73.4-11.924-20.1-31.165-36.72-53.958-52.67-22.724-15.9-49.404-31.39-75.956-48.91-26.657-17.579-53.461-37.357-76.965-62.122zm216.091 233.953c-6.279 29.09-3.469 50.63 4.84 68.66 8.276 17.96 21.943 32.29 37.01 47.05 30.168 29.55 66.411 61.26 79.859 128.32l3.431-.69c-13.684-68.24-50.722-100.63-80.841-130.13-15.076-14.77-28.303-28.7-36.28-46.01-7.943-17.24-10.744-37.99-4.598-66.46zm121.709 244.03c6.212 30.98 25.023 50.84 43.896 72.81 18.905 22 38.132 46.35 46.201 86.59l3.432-.69c-8.25-41.14-27.967-66.05-46.979-88.18-19.043-22.17-37.122-41.31-43.119-71.22z" fill="url(#d)"/><path d="m297.916 552.407-1.425-1.016zm36.71 416.67 1.03-1.414zm254.902 193.343 1.749.06zm-122.52-1019.23c-17.044.953-30.436 5.032-41.032 11.927-10.603 6.898-18.282 16.534-24.027 28.395-11.435 23.605-15.323 56.308-19.339 94.457-8.055 76.51-16.702 176.055-86.119 273.422l2.85 2.032c70.016-98.207 78.701-198.637 86.75-275.088 4.035-38.332 7.894-70.356 19.007-93.297 5.529-11.413 12.825-20.506 22.787-26.987 9.968-6.486 22.73-10.439 39.318-11.366zm-170.517 408.201c-49.83 69.893-82.639 144-81.902 216.044.738 72.161 35.125 141.937 119.006 203.056l2.061-2.828c-83.146-60.584-116.843-129.392-117.567-200.264-.726-70.99 31.624-144.367 81.252-213.976zm37.104 419.1c27.906 20.334 58.105 35.119 87.575 47.709 29.579 12.65 58.145 22.99 83.329 34.63 25.115 11.61 46.422 24.33 61.207 41.46 14.727 17.05 23.079 38.59 22.073 68.07l3.498.12c1.034-30.3-7.581-52.71-22.922-70.48-15.282-17.7-37.142-30.68-62.387-42.35-25.176-11.63-54.163-22.16-83.422-34.66-29.369-12.56-59.293-27.219-86.89-47.327zm254.184 191.869c-1.015 29.75 5.573 50.45 16.952 66.72 11.332 16.21 27.326 27.88 44.774 39.73 34.934 23.73 76.23 48.5 101.369 112.11l3.255-1.29c-25.581-64.73-67.781-90.03-102.658-113.71-17.457-11.86-32.948-23.22-43.872-38.85-10.876-15.55-17.316-35.47-16.322-64.59zm163.095 218.56c11.612 29.38 33.65 45.59 56.123 63.86 22.511 18.3 45.755 38.84 60.838 77.01l3.255-1.29c-15.422-39.02-39.248-60.04-61.885-78.44-22.676-18.43-43.866-34.06-55.076-62.43z" fill="url(#e)"/></g></svg>