<svg fill="none" height="858" viewBox="0 0 350 858" width="350" xmlns="http://www.w3.org/2000/svg" xmlns:xlink="http://www.w3.org/1999/xlink"><linearGradient id="a"><stop offset="0" stop-color="#0047ff"/><stop offset="1" stop-color="#24fe41"/></linearGradient><linearGradient id="b" gradientUnits="userSpaceOnUse" x1="-36.304" x2="165.302" xlink:href="#a" y1="271.637" y2="1024.04"/><linearGradient id="c" gradientUnits="userSpaceOnUse" x1="-51.4649" x2="84.898" xlink:href="#a" y1="276.459" y2="1043.38"/><linearGradient id="d" gradientUnits="userSpaceOnUse" x1="-73.37" x2="-21.2018" xlink:href="#a" y1="268.417" y2="1045.61"/><clipPath id="e"><path d="m0 .273926h350v857h-350z"/></clipPath><g clip-path="url(#e)"><path d="m121.254 464.084h83.7879v32.0376h-83.7879z" fill="#080010"/><path d="m40.9739 777.433-.8874-.461zm135.1261-211.969-.869-.495zm-84.4965-216.388-.3352.942zm-96.01808 720.944c2.62011-10.55 2.27918-25.48 1.47054-43.94-.81122-18.51-2.10427-40.691-1.46707-65.912 1.27386-50.42 10.26381-112.969 46.27241-182.274l-1.7748-.922c-36.18431 69.643-45.21766 132.509-46.49697 183.146-.63937 25.307.65851 47.572 1.46835 66.052.81241 18.54 1.12262 33.16-1.41346 43.36zm46.27588-292.126c19.9786-38.451 33.7025-56.283 52.4715-82.09 18.7882-25.834 42.5812-59.595 82.6362-129.845l-1.738-.99c-40.013 70.178-63.766 103.877-82.5157 129.658-18.7686 25.807-32.5738 43.746-52.6288 82.345zm135.1077-211.935c20.372-35.73 28.924-65.95 29.322-91.526.398-25.592-7.369-46.469-19.519-63.489-24.262-33.985-65.962-52.538-94.8333-62.81l-.6704 1.884c28.8217 10.255 69.9977 28.64 93.8757 62.088 11.919 16.697 19.538 37.161 19.147 62.296-.391 25.15-8.804 55.04-29.06 90.567zm-85.0303-217.825c-192.1527-68.372-245.8257-172.159-239.5067-239.981l-1.991-.186c-6.443 69.155 48.29 173.542 240.8273 242.051z" fill="url(#b)"/><path d="m-15.0068 786.515-.8446-.535zm141.9718-212.486-.823-.568zm-54.8071-209.954-.4148.91zm-157.4683 710.055c3.5146-10.28 4.4553-25.19 5.2317-43.65.7789-18.51 1.3918-40.719 4.1887-65.793 5.5916-50.126 19.9105-111.674 61.7277-177.636l-1.6891-1.071c-42.0213 66.284-56.4108 128.145-62.0262 178.485-2.8066 25.159-3.4218 47.445-4.1993 65.935-.7801 18.54-1.7241 33.13-5.126 43.08zm71.1481-287.079c46.4825-73.321 50.1434-79.414 141.9503-212.455l-1.646-1.135c-91.8166 133.054-95.4928 139.169-141.9934 212.519zm141.9503-212.455c46.705-67.681 47.125-114.247 28.479-147.147-18.563-32.752-55.858-51.596-83.6943-64.284l-.8296 1.82c27.8837 12.71 64.5799 31.331 82.7839 63.45 18.121 31.973 18.085 77.684-28.385 145.026zm-55.2153-211.431c-185.5847-84.593-230.1617-192.599-218.0517-259.63l-1.968-.355c-12.349 68.348 33.235 177.043 219.1901 261.805z" fill="url(#c)"/><path d="m-92.5861 779.413-.7814-.624zm164.2336-195.79-.7564-.654zm-31.654-214.668-.5113.859zm-233.7385 688.725c4.612-9.84 7.168-24.56 9.946-42.82 2.788-18.322 5.812-40.33 11.318-64.951 11.009-49.221 31.935-108.847 80.6762-169.872l-1.5627-1.248c-48.9795 61.322-70.0095 121.252-81.0655 170.683-5.525 24.705-8.56 46.796-11.343 65.088-2.791 18.35-5.316 32.75-9.78 42.27zm101.9402-277.643c54.179-67.832 58.4806-73.49 164.2087-195.76l-1.5128-1.308c-105.7391 122.282-110.0584 127.961-164.2586 195.82zm164.2087-195.76c53.7871-62.202 59.2681-108.447 44.3091-143.179-14.892-34.576-49.9165-57.363-76.2083-73.003l-1.0225 1.719c26.3364 15.666 60.7898 38.167 75.3938 72.076 14.538 33.752 9.532 79.189-43.9849 141.079zm-31.8992-216.182c-175.2867-104.269-207.8567-216.482-188.5297-281.7988l-1.918-.5675c-19.706 66.6003 13.788 179.6073 189.4252 284.0853z" fill="url(#d)"/></g></svg>