<svg fill="none" height="1868" viewBox="0 0 292 1868" width="292" xmlns="http://www.w3.org/2000/svg" xmlns:xlink="http://www.w3.org/1999/xlink"><linearGradient id="a"><stop offset="0" stop-color="#6e6efc" stop-opacity=".8"/><stop offset="1" stop-color="#1464dc" stop-opacity=".75"/></linearGradient><linearGradient id="b" gradientUnits="userSpaceOnUse" x1="203.94" x2="227.927" xlink:href="#a" y1="-68.1642" y2="1302.08"/><linearGradient id="c" gradientUnits="userSpaceOnUse" x1="208.547" x2="306.573" xlink:href="#a" y1="-86.6848" y2="1288.83"/><linearGradient id="d" gradientUnits="userSpaceOnUse" x1="196.412" x2="470.951" xlink:href="#a" y1="-92.8137" y2="1276.31"/><linearGradient id="e" gradientUnits="userSpaceOnUse" x1="169.171" x2="689.965" xlink:href="#a" y1="-91.7182" y2="1226.1"/><linearGradient id="f" gradientUnits="userSpaceOnUse" x1="203.94" x2="227.927" xlink:href="#a" y1="1461.84" y2="2832.08"/><linearGradient id="g" gradientUnits="userSpaceOnUse" x1="208.547" x2="306.573" xlink:href="#a" y1="1443.32" y2="2818.83"/><linearGradient id="h" gradientUnits="userSpaceOnUse" x1="196.412" x2="470.951" xlink:href="#a" y1="1437.19" y2="2806.31"/><linearGradient id="i" gradientUnits="userSpaceOnUse" x1="169.171" x2="689.965" xlink:href="#a" y1="1438.28" y2="2756.1"/><clipPath id="j"><path d="m0 0h292v1868h-292z"/></clipPath><clipPath id="k"><path d="m-79-334.484h371v1510h-371z"/></clipPath><clipPath id="l"><path d="m-79 1195.52h371v1510h-371z"/></clipPath><g clip-path="url(#j)"><g clip-path="url(#k)"><path d="m183.246 190.95 1.087 1.372zm-100.0372 403.558 1.4573-.969zm170.7612 270.552 1.617.67zm134.774-953.6292c-16.191-.0577-27.225 10.114-37.085 26.5178-9.829 16.3528-18.851 39.5204-30.771 66.28233-23.908 53.67457-59.888 122.87807-138.729 185.34707l2.174 2.744c79.477-62.974 115.742-132.7632 139.752-186.667 12.038-27.0273 20.892-49.7951 30.574-65.9033 9.651-16.0572 19.763-24.8719 34.073-24.8209zm-206.585 278.1472c-82.136 65.08-131.1949 130.594-147.6988 197.934-16.5203 67.407-.343 136.316 47.2912 207.964l2.9147-1.937c-47.248-71.068-63.0343-138.98-46.8065-205.194 16.2442-66.28 64.6444-131.187 146.4734-196.023zm-100.4076 405.898c18.7796 28.248 41.7606 52.399 64.8876 74.43 23.202 22.103 46.363 41.911 65.894 61.791 19.489 19.837 35.051 39.454 42.946 60.867 7.865 21.332 8.169 44.579-3.125 71.826l3.233 1.34c11.613-28.015 11.363-52.173 3.176-74.376-8.156-22.122-24.142-42.168-43.733-62.11-19.549-19.898-43-39.983-65.977-61.872-23.053-21.961-45.818-45.903-64.3869-73.833zm170.6026 268.914c-11.397 27.493-12.497 49.185-7.558 68.418 4.919 19.155 15.793 35.705 27.968 52.927 24.377 34.485 54.343 72.175 55.54 140.565l3.5-.06c-1.218-69.59-31.845-108.1-56.182-142.526-12.182-17.232-22.694-33.312-27.436-51.776-4.721-18.385-3.754-39.298 7.401-66.208zm75.95 261.91c.553 31.59 15.495 54.51 30.121 79.5 14.651 25.04 29.198 52.44 29.916 93.47l3.5-.06c-.735-41.95-15.662-70-30.395-95.17-14.758-25.23-29.108-47.31-29.642-77.8z" fill="url(#b)"/><path d="m388.335-114.318c-81.471-8.29-63.199 180.8933-173.277 295.849-150.3396 157-197.1923 255.834-90.194 408.444 78.847 112.461 224.844 148.187 185.022 261.008-39.204 111.068 80.169 119.103 89.978 256.757 4.415 61.94 63.325 86.71 69.225 169.5" stroke="url(#c)" stroke-width="3.5"/><path d="m217.706 193.973-1.38-1.078zm-37.838 416.57-1.269 1.204zm216.532 235.525 1.711.369zm-6.259-991.619c-13.605-1.575-24.649-.041-33.75 4.313-9.107 4.357-16.107 11.46-21.756 20.736-11.228 18.437-17.314 45.8274-24.04 78.3587-13.497 65.2828-29.759 152.4343-94.269 235.0383l2.759 2.155c65.077-83.332 81.454-171.2636 94.938-236.4847 6.765-32.7207 12.755-59.4373 23.601-77.2473 5.388-8.846 11.923-15.402 20.277-19.398 8.361-4 18.704-5.514 31.838-3.994zm-173.815 338.446c-52.779 67.585-94.737 137.988-107.232 208.671-12.5196 70.82 4.567 141.761 69.505 210.181l2.539-2.409c-64.198-67.64-80.918-137.47-68.598-207.162 12.345-69.829 53.874-139.681 106.545-207.126zm-37.727 418.852c23.77 25.046 50.826 44.994 77.577 62.639 26.856 17.714 53.132 32.943 75.877 48.855 22.677 15.864 41.418 32.137 52.954 51.589 11.49 19.375 15.906 42.033 9.683 70.868l3.421.739c6.397-29.64 1.876-53.208-10.094-73.392-11.924-20.107-31.165-36.727-53.958-52.672-22.724-15.898-49.404-31.396-75.956-48.909-26.657-17.582-53.461-37.361-76.965-62.126zm216.091 233.951c-6.279 29.092-3.469 50.629 4.84 68.664 8.276 17.961 21.943 32.292 37.01 47.05 30.168 29.549 66.411 61.258 79.859 128.318l3.431-.69c-13.684-68.24-50.722-100.628-80.841-130.129-15.076-14.766-28.303-28.7-36.28-46.013-7.943-17.239-10.744-37.986-4.598-66.461zm121.709 244.032c6.212 30.98 25.023 50.84 43.896 72.81 18.905 22 38.132 46.35 46.201 86.59l3.432-.69c-8.25-41.14-27.967-66.05-46.979-88.18-19.043-22.17-37.122-41.31-43.119-71.22z" fill="url(#d)"/><path d="m218.916 217.649-1.425-1.016zm36.71 416.67 1.03-1.414zm254.902 193.347 1.749.06zm-122.52-1019.233c-17.044.952-30.436 5.032-41.032 11.926-10.603 6.898-18.282 16.535-24.027 28.395-11.435 23.605-15.323 56.3085-19.339 94.4571-8.055 76.51-16.702 176.0549-86.119 273.4219l2.85 2.032c70.016-98.207 78.701-198.6366 86.75-275.0875 4.035-38.3319 7.894-70.3555 19.007-93.2975 5.529-11.413 12.825-20.506 22.787-26.987 9.968-6.486 22.73-10.439 39.318-11.366zm-170.517 408.2c-49.83 69.894-82.639 144-81.902 216.044.738 72.162 35.125 141.937 119.006 203.056l2.061-2.828c-83.146-60.584-116.843-129.392-117.567-200.264-.726-70.99 31.624-144.367 81.252-213.976zm37.104 419.1c27.906 20.334 58.105 35.116 87.575 47.713 29.579 12.645 58.145 22.985 83.329 34.626 25.115 11.61 46.422 24.332 61.207 41.457 14.727 17.056 23.079 38.595 22.073 68.078l3.498.119c1.034-30.304-7.581-52.717-22.922-70.485-15.282-17.7-37.142-30.676-62.387-42.346-25.176-11.638-54.163-22.159-83.422-34.667-29.369-12.554-59.293-27.215-86.89-47.323zm254.184 191.874c-1.015 29.744 5.573 50.44 16.952 66.714 11.332 16.207 27.326 27.884 44.774 39.733 34.934 23.725 76.23 48.494 101.369 112.106l3.255-1.29c-25.581-64.728-67.781-90.026-102.658-113.712-17.457-11.856-32.948-23.22-43.872-38.842-10.876-15.556-17.316-35.476-16.322-64.59zm163.095 218.553c11.612 29.38 33.65 45.59 56.123 63.86 22.511 18.3 45.755 38.85 60.838 77.01l3.255-1.29c-15.422-39.02-39.248-60.03-61.885-78.44-22.676-18.43-43.866-34.06-55.076-62.43z" fill="url(#e)"/></g><g clip-path="url(#l)"><path d="m183.246 1720.95 1.087 1.37zm-100.0372 403.56 1.4573-.97zm170.7612 270.55 1.617.67zm134.774-953.63c-16.191-.06-27.225 10.11-37.085 26.52-9.829 16.35-18.851 39.52-30.771 66.28-23.908 53.68-59.888 122.88-138.729 185.35l2.174 2.74c79.477-62.97 115.742-132.76 139.752-186.67 12.038-27.02 20.892-49.79 30.574-65.9 9.651-16.06 19.763-24.87 34.073-24.82zm-206.585 278.15c-82.136 65.08-131.1949 130.59-147.6988 197.93-16.5203 67.41-.343 136.32 47.2912 207.97l2.9147-1.94c-47.248-71.07-63.0343-138.98-46.8065-205.19 16.2442-66.29 64.6444-131.19 146.4734-196.03zm-100.4076 405.9c18.7796 28.24 41.7606 52.39 64.8876 74.43 23.202 22.1 46.363 41.91 65.894 61.79 19.489 19.83 35.051 39.45 42.946 60.86 7.865 21.34 8.169 44.58-3.125 71.83l3.233 1.34c11.613-28.01 11.363-52.17 3.176-74.38-8.156-22.12-24.142-42.16-43.733-62.11-19.549-19.89-43-39.98-65.977-61.87-23.053-21.96-45.818-45.9-64.3869-73.83zm170.6026 268.91c-11.397 27.49-12.497 49.19-7.558 68.42 4.919 19.15 15.793 35.7 27.968 52.92 24.377 34.49 54.343 72.18 55.54 140.57l3.5-.06c-1.218-69.59-31.845-108.1-56.182-142.53-12.182-17.23-22.694-33.31-27.436-51.77-4.721-18.39-3.754-39.3 7.401-66.21zm75.95 261.91c.553 31.59 15.495 54.51 30.121 79.5 14.651 25.04 29.198 52.44 29.916 93.47l3.5-.06c-.735-41.95-15.662-70-30.395-95.17-14.758-25.23-29.108-47.31-29.642-77.8z" fill="url(#f)"/><path d="m388.335 1415.68c-81.471-8.29-63.199 180.9-173.277 295.85-150.3396 157-197.1923 255.83-90.194 408.45 78.847 112.46 224.844 148.18 185.022 261-39.204 111.07 80.169 119.11 89.978 256.76 4.415 61.94 63.325 86.71 69.225 169.5" stroke="url(#g)" stroke-width="3.5"/><path d="m217.706 1723.97-1.38-1.07zm-37.838 416.57-1.269 1.21zm216.532 235.53 1.711.37zm-6.259-991.62c-13.605-1.58-24.649-.04-33.75 4.31-9.107 4.36-16.107 11.46-21.756 20.74-11.228 18.43-17.314 45.83-24.04 78.36-13.497 65.28-29.759 152.43-94.269 235.04l2.759 2.15c65.077-83.33 81.454-171.26 94.938-236.48 6.765-32.73 12.755-59.44 23.601-77.25 5.388-8.85 11.923-15.4 20.277-19.4 8.361-4 18.704-5.51 31.838-3.99zm-173.815 338.45c-52.779 67.58-94.737 137.98-107.232 208.67-12.5196 70.82 4.567 141.76 69.505 210.18l2.539-2.41c-64.198-67.64-80.918-137.47-68.598-207.16 12.345-69.83 53.874-139.68 106.545-207.13zm-37.727 418.85c23.77 25.04 50.826 44.99 77.577 62.64 26.856 17.71 53.132 32.94 75.877 48.85 22.677 15.87 41.418 32.14 52.954 51.59 11.49 19.38 15.906 42.03 9.683 70.87l3.421.74c6.397-29.64 1.876-53.21-10.094-73.4-11.924-20.1-31.165-36.72-53.958-52.67-22.724-15.9-49.404-31.39-75.956-48.91-26.657-17.58-53.461-37.36-76.965-62.12zm216.091 233.95c-6.279 29.09-3.469 50.63 4.84 68.66 8.276 17.96 21.943 32.29 37.01 47.05 30.168 29.55 66.411 61.26 79.859 128.32l3.431-.69c-13.684-68.24-50.722-100.63-80.841-130.13-15.076-14.77-28.303-28.7-36.28-46.01-7.943-17.24-10.744-37.99-4.598-66.46zm121.709 244.03c6.212 30.98 25.023 50.84 43.896 72.81 18.905 22 38.132 46.35 46.201 86.59l3.432-.69c-8.25-41.14-27.967-66.05-46.979-88.18-19.043-22.17-37.122-41.31-43.119-71.22z" fill="url(#h)"/><path d="m218.916 1747.65-1.425-1.02zm36.71 416.67 1.03-1.42zm254.902 193.35 1.749.06zm-122.52-1019.24c-17.044.96-30.436 5.03-41.032 11.93-10.603 6.9-18.282 16.53-24.027 28.39-11.435 23.61-15.323 56.31-19.339 94.46-8.055 76.51-16.702 176.06-86.119 273.42l2.85 2.03c70.016-98.2 78.701-198.63 86.75-275.08 4.035-38.33 7.894-70.36 19.007-93.3 5.529-11.41 12.825-20.51 22.787-26.99 9.968-6.48 22.73-10.44 39.318-11.36zm-170.517 408.2c-49.83 69.9-82.639 144-81.902 216.05.738 72.16 35.125 141.93 119.006 203.05l2.061-2.83c-83.146-60.58-116.843-129.39-117.567-200.26-.726-70.99 31.624-144.37 81.252-213.98zm37.104 419.1c27.906 20.34 58.105 35.12 87.575 47.72 29.579 12.64 58.145 22.98 83.329 34.62 25.115 11.61 46.422 24.33 61.207 41.46 14.727 17.06 23.079 38.59 22.073 68.08l3.498.12c1.034-30.31-7.581-52.72-22.922-70.49-15.282-17.7-37.142-30.67-62.387-42.34-25.176-11.64-54.163-22.16-83.422-34.67-29.369-12.56-59.293-27.22-86.89-47.33zm254.184 191.88c-1.015 29.74 5.573 50.44 16.952 66.71 11.332 16.21 27.326 27.88 44.774 39.73 34.934 23.73 76.23 48.5 101.369 112.11l3.255-1.29c-25.581-64.73-67.781-90.03-102.658-113.71-17.457-11.86-32.948-23.22-43.872-38.84-10.876-15.56-17.316-35.48-16.322-64.59zm163.095 218.55c11.612 29.38 33.65 45.59 56.123 63.86 22.511 18.3 45.755 38.85 60.838 77.01l3.255-1.29c-15.422-39.02-39.248-60.03-61.885-78.44-22.676-18.43-43.866-34.06-55.076-62.43z" fill="url(#i)"/></g></g></svg>