<svg fill="none" height="1863" viewBox="0 0 444 1863" width="444" xmlns="http://www.w3.org/2000/svg" xmlns:xlink="http://www.w3.org/1999/xlink"><linearGradient id="a"><stop offset="0" stop-color="#0047ff"/><stop offset="1" stop-color="#24fe41"/></linearGradient><linearGradient id="b" gradientUnits="userSpaceOnUse" x1="-2.32305" x2="186.555" xlink:href="#a" y1="1486.6" y2="61.1037"/><linearGradient id="c" gradientUnits="userSpaceOnUse" x1="-37.9413" x2="142.113" xlink:href="#a" y1="1398.28" y2="39.3794"/><linearGradient id="d" gradientUnits="userSpaceOnUse" x1="-89.4056" x2="167.849" xlink:href="#a" y1="1263.42" y2="55.8124"/><path d="m-117.856 1819.63c142.5162-87.5 453.169-253.2 378.496-540.9-74.673-287.704-285.6235-314.861-285.6235-492.078 0-192.893 203.1205-261.278 226.7165-439.357 23.596-178.08-159.0545-273.1589-260.0145-318.6317" stroke="url(#b)" stroke-width="3.5"/><path d="m-46.3168 752.624-1.7398-.189zm-230.8372 944.406c80.591-22.89 205.4016-56.51 309.7805-119.77 104.3355-63.23 187.9525-155.88 186.7585-296.8l3.499-.03c1.209 142.64-83.541 236.25-188.4434 299.83-104.8582 63.55-230.1546 97.28-310.6386 120.14zm496.539-416.57c-1.196-141.08-72.611-226.93-141.5975-300.54-34.4503-36.758-68.42338-70.588-92.4824-106.639-24.1093-36.126-38.3808-74.64-33.3617-120.846l3.4796.378c-4.9054 45.159 8.9917 82.86 32.7933 118.525 23.8518 35.741 57.5316 69.278 92.1249 106.189 69.1008 73.733 141.3358 160.423 142.5428 302.903zm-267.4416-528.025c11.8034-108.661 60.424-170.798 108.8312-227.9 48.4064-57.101 96.3854-108.98 108.1054-197.429l3.47.46c-11.877 89.631-60.618 142.271-108.9057 199.232-48.2871 56.96-96.3345 118.427-108.0213 226.015zm216.9366-425.329c11.7-88.301-27.687-156.065-82.7591-207.535-55.1096-51.505-125.7861-86.5469-176.2394-109.2712l1.4374-3.19122c50.5068 22.74852 121.6353 57.98262 177.1918 109.90542 55.5943 51.958 95.7343 120.773 83.8393 210.552z" fill="url(#c)"/><path d="m-379.218 1421.12c43.086 155.11 439.822 209.37 547.721-90.69 107.9-300.05-177.7626-326.63-227.3622-570.062-37.5886-184.485 171.0132-244.714 208.4412-420.408s-137.241-284.7436-234.3423-337.96048" stroke="url(#d)" stroke-width="3.5"/></svg>