<svg fill="none" height="2427" viewBox="0 0 396 2427" width="396" xmlns="http://www.w3.org/2000/svg" xmlns:xlink="http://www.w3.org/1999/xlink"><linearGradient id="a"><stop offset="0" stop-color="#6e6efc" stop-opacity=".8"/><stop offset="1" stop-color="#1464dc" stop-opacity=".75"/></linearGradient><linearGradient id="b" gradientUnits="userSpaceOnUse" x1="302.94" x2="326.927" xlink:href="#a" y1="286.578" y2="1656.83"/><linearGradient id="c" gradientUnits="userSpaceOnUse" x1="307.547" x2="405.573" xlink:href="#a" y1="268.056" y2="1643.57"/><linearGradient id="d" gradientUnits="userSpaceOnUse" x1="295.412" x2="569.951" xlink:href="#a" y1="261.927" y2="1631.05"/><linearGradient id="e" gradientUnits="userSpaceOnUse" x1="268.171" x2="788.965" xlink:href="#a" y1="263.024" y2="1580.85"/><linearGradient id="f" gradientUnits="userSpaceOnUse" x1="302.94" x2="326.927" xlink:href="#a" y1="1816.58" y2="3186.83"/><linearGradient id="g" gradientUnits="userSpaceOnUse" x1="307.547" x2="405.573" xlink:href="#a" y1="1798.06" y2="3173.57"/><linearGradient id="h" gradientUnits="userSpaceOnUse" x1="295.412" x2="569.951" xlink:href="#a" y1="1791.93" y2="3161.05"/><linearGradient id="i" gradientUnits="userSpaceOnUse" x1="268.171" x2="788.965" xlink:href="#a" y1="1793.02" y2="3110.85"/><clipPath id="j"><path d="m20 20.2578h371v1510h-371z"/></clipPath><clipPath id="k"><path d="m20 1550.26h371v1510h-371z"/></clipPath><g clip-path="url(#j)"><path d="m282.246 545.693 1.087 1.371zm-100.037 403.557 1.457-.969zm170.761 270.55 1.617.67zm134.774-953.627c-16.191-.057-27.225 10.114-37.085 26.518-9.829 16.353-18.851 39.521-30.771 66.283-23.908 53.674-59.888 122.878-138.729 185.347l2.174 2.743c79.477-62.973 115.742-132.762 139.752-186.666 12.038-27.028 20.892-49.795 30.574-65.904 9.651-16.057 19.763-24.872 34.073-24.821zm-206.585 278.148c-82.136 65.08-131.195 130.594-147.699 197.934-16.52 67.407-.343 136.315 47.291 207.964l2.915-1.938c-47.248-71.067-63.034-138.979-46.806-205.193 16.244-66.281 64.644-131.187 146.473-196.024zm-100.408 405.898c18.78 28.248 41.761 52.401 64.888 74.431 23.202 22.1 46.363 41.91 65.894 61.79 19.489 19.84 35.051 39.45 42.946 60.87 7.865 21.33 8.169 44.58-3.125 71.82l3.233 1.34c11.613-28.01 11.363-52.17 3.176-74.37-8.156-22.13-24.142-42.17-43.733-62.11-19.549-19.9-43-39.99-65.977-61.88-23.053-21.96-45.818-45.899-64.387-73.829zm170.603 268.911c-11.397 27.5-12.497 49.19-7.558 68.42 4.919 19.16 15.793 35.71 27.968 52.93 24.377 34.48 54.343 72.17 55.54 140.56l3.5-.06c-1.218-69.59-31.845-108.1-56.182-142.52-12.182-17.23-22.694-33.32-27.436-51.78-4.721-18.38-3.754-39.3 7.401-66.21zm75.95 261.91c.553 31.59 15.495 54.51 30.121 79.51 14.651 25.03 29.198 52.44 29.916 93.47l3.5-.06c-.735-41.96-15.662-70-30.395-95.18-14.758-25.23-29.108-47.3-29.642-77.8z" fill="url(#b)"/><path d="m487.335 240.423c-81.471-8.291-63.199 180.893-173.277 295.848-150.34 157.001-197.192 255.834-90.194 408.445 78.847 112.464 224.844 148.184 185.022 261.004-39.204 111.07 80.169 119.11 89.978 256.76 4.415 61.94 63.325 86.72 69.225 169.51" stroke="url(#c)" stroke-width="3.5"/><path d="m316.706 548.713-1.38-1.077zm-37.838 416.57-1.269 1.205zm216.532 235.527 1.711.37zm-6.259-991.62c-13.605-1.575-24.649-.041-33.75 4.313-9.107 4.357-16.107 11.459-21.756 20.736-11.228 18.436-17.314 45.827-24.04 78.358-13.497 65.283-29.759 152.434-94.269 235.039l2.759 2.154c65.077-83.331 81.454-171.263 94.938-236.484 6.765-32.721 12.755-59.437 23.601-77.247 5.388-8.847 11.923-15.402 20.277-19.399 8.361-3.999 18.704-5.514 31.838-3.993zm-173.815 338.446c-52.779 67.585-94.737 137.988-107.232 208.671-12.52 70.82 4.567 141.761 69.505 210.181l2.539-2.409c-64.198-67.641-80.918-137.47-68.598-207.163 12.345-69.828 53.874-139.68 106.545-207.126zm-37.727 418.852c23.77 25.045 50.826 44.992 77.577 62.642 26.856 17.71 53.132 32.94 75.877 48.85 22.677 15.87 41.418 32.14 52.954 51.59 11.49 19.38 15.906 42.03 9.683 70.87l3.421.74c6.397-29.64 1.876-53.21-10.094-73.39-11.924-20.11-31.165-36.73-53.958-52.68-22.724-15.89-49.404-31.39-75.956-48.91-26.657-17.58-53.461-37.356-76.965-62.121zm216.091 233.952c-6.279 29.09-3.469 50.63 4.84 68.66 8.276 17.96 21.943 32.29 37.01 47.05 30.168 29.55 66.411 61.26 79.859 128.32l3.431-.69c-13.684-68.24-50.722-100.63-80.841-130.13-15.076-14.76-28.303-28.7-36.28-46.01-7.943-17.24-10.744-37.99-4.598-66.46zm121.709 244.03c6.212 30.98 25.023 50.84 43.896 72.81 18.905 22 38.132 46.35 46.201 86.59l3.432-.69c-8.25-41.14-27.967-66.05-46.979-88.18-19.043-22.17-37.122-41.31-43.119-71.22z" fill="url(#d)"/><path d="m317.916 572.39-1.425-1.015zm36.71 416.671 1.03-1.415zm254.902 193.349 1.749.06zm-122.52-1019.236c-17.044.953-30.436 5.032-41.032 11.927-10.603 6.898-18.282 16.534-24.027 28.395-11.435 23.605-15.323 56.308-19.339 94.457-8.055 76.51-16.702 176.055-86.119 273.422l2.85 2.031c70.016-98.206 78.701-198.636 86.75-275.087 4.035-38.332 7.894-70.356 19.007-93.297 5.529-11.413 12.825-20.506 22.787-26.988 9.968-6.485 22.73-10.438 39.318-11.365zm-170.517 408.201c-49.83 69.893-82.639 144-81.902 216.044.738 72.161 35.125 141.937 119.006 203.056l2.061-2.829c-83.146-60.583-116.843-129.391-117.567-200.263-.726-70.99 31.624-144.367 81.252-213.977zm37.104 419.1c27.906 20.335 58.105 35.115 87.575 47.715 29.579 12.64 58.145 22.98 83.329 34.62 25.115 11.61 46.422 24.34 61.207 41.46 14.727 17.06 23.079 38.6 22.073 68.08l3.498.12c1.034-30.31-7.581-52.72-22.922-70.49-15.282-17.7-37.142-30.67-62.387-42.34-25.176-11.64-54.163-22.16-83.422-34.67-29.369-12.55-59.293-27.22-86.89-47.324zm254.184 191.875c-1.015 29.74 5.573 50.44 16.952 66.71 11.332 16.21 27.326 27.89 44.774 39.74 34.934 23.72 76.23 48.49 101.369 112.1l3.255-1.29c-25.581-64.73-67.781-90.02-102.658-113.71-17.457-11.86-32.948-23.22-43.872-38.84-10.876-15.56-17.316-35.48-16.322-64.59zm163.095 218.55c11.612 29.39 33.65 45.59 56.123 63.86 22.511 18.3 45.755 38.85 60.838 77.01l3.255-1.28c-15.422-39.03-39.248-60.04-61.885-78.44-22.676-18.44-43.866-34.07-55.076-62.44z" fill="url(#e)"/></g><g clip-path="url(#k)"><path d="m282.246 2075.69 1.087 1.37zm-100.037 403.56 1.457-.97zm170.761 270.55 1.617.67zm134.774-953.63c-16.191-.05-27.225 10.12-37.085 26.52-9.829 16.35-18.851 39.52-30.771 66.28-23.908 53.68-59.888 122.88-138.729 185.35l2.174 2.74c79.477-62.97 115.742-132.76 139.752-186.66 12.038-27.03 20.892-49.8 30.574-65.91 9.651-16.05 19.763-24.87 34.073-24.82zm-206.585 278.15c-82.136 65.08-131.195 130.59-147.699 197.93-16.52 67.41-.343 136.32 47.291 207.97l2.915-1.94c-47.248-71.07-63.034-138.98-46.806-205.19 16.244-66.28 64.644-131.19 146.473-196.03zm-100.408 405.9c18.78 28.25 41.761 52.4 64.888 74.43 23.202 22.1 46.363 41.91 65.894 61.79 19.489 19.84 35.051 39.45 42.946 60.87 7.865 21.33 8.169 44.58-3.125 71.82l3.233 1.34c11.613-28.01 11.363-52.17 3.176-74.37-8.156-22.13-24.142-42.17-43.733-62.11-19.549-19.9-43-39.99-65.977-61.88-23.053-21.96-45.818-45.9-64.387-73.83zm170.603 268.91c-11.397 27.5-12.497 49.19-7.558 68.42 4.919 19.16 15.793 35.71 27.968 52.93 24.377 34.48 54.343 72.17 55.54 140.56l3.5-.06c-1.218-69.59-31.845-108.1-56.182-142.52-12.182-17.23-22.694-33.32-27.436-51.78-4.721-18.38-3.754-39.3 7.401-66.21zm75.95 261.91c.553 31.59 15.495 54.51 30.121 79.51 14.651 25.03 29.198 52.44 29.916 93.47l3.5-.06c-.735-41.96-15.662-70-30.395-95.18-14.758-25.23-29.108-47.3-29.642-77.8z" fill="url(#f)"/><path d="m487.335 1770.42c-81.471-8.29-63.199 180.9-173.277 295.85-150.34 157-197.192 255.84-90.194 408.45 78.847 112.46 224.844 148.18 185.022 261-39.204 111.07 80.169 119.11 89.978 256.76 4.415 61.94 63.325 86.72 69.225 169.51" stroke="url(#g)" stroke-width="3.5"/><path d="m316.706 2078.71-1.38-1.07zm-37.838 416.57-1.269 1.21zm216.532 235.53 1.711.37zm-6.259-991.62c-13.605-1.58-24.649-.04-33.75 4.31-9.107 4.36-16.107 11.46-21.756 20.74-11.228 18.44-17.314 45.83-24.04 78.36-13.497 65.28-29.759 152.43-94.269 235.04l2.759 2.15c65.077-83.33 81.454-171.26 94.938-236.48 6.765-32.72 12.755-59.44 23.601-77.25 5.388-8.85 11.923-15.4 20.277-19.4 8.361-4 18.704-5.51 31.838-3.99zm-173.815 338.45c-52.779 67.58-94.737 137.98-107.232 208.67-12.52 70.82 4.567 141.76 69.505 210.18l2.539-2.41c-64.198-67.64-80.918-137.47-68.598-207.16 12.345-69.83 53.874-139.68 106.545-207.13zm-37.727 418.85c23.77 25.04 50.826 44.99 77.577 62.64 26.856 17.71 53.132 32.94 75.877 48.85 22.677 15.87 41.418 32.14 52.954 51.59 11.49 19.38 15.906 42.03 9.683 70.87l3.421.74c6.397-29.64 1.876-53.21-10.094-73.39-11.924-20.11-31.165-36.73-53.958-52.68-22.724-15.89-49.404-31.39-75.956-48.91-26.657-17.58-53.461-37.36-76.965-62.12zm216.091 233.95c-6.279 29.09-3.469 50.63 4.84 68.66 8.276 17.96 21.943 32.29 37.01 47.05 30.168 29.55 66.411 61.26 79.859 128.32l3.431-.69c-13.684-68.24-50.722-100.63-80.841-130.13-15.076-14.76-28.303-28.7-36.28-46.01-7.943-17.24-10.744-37.99-4.598-66.46zm121.709 244.03c6.212 30.98 25.023 50.84 43.896 72.81 18.905 22 38.132 46.35 46.201 86.59l3.432-.69c-8.25-41.14-27.967-66.05-46.979-88.18-19.043-22.17-37.122-41.31-43.119-71.22z" fill="url(#h)"/><path d="m317.916 2102.39-1.425-1.02zm36.71 416.67 1.03-1.41zm254.902 193.35 1.749.06zm-122.52-1019.24c-17.044.96-30.436 5.04-41.032 11.93-10.603 6.9-18.282 16.54-24.027 28.4-11.435 23.6-15.323 56.3-19.339 94.45-8.055 76.51-16.702 176.06-86.119 273.42l2.85 2.04c70.016-98.21 78.701-198.64 86.75-275.09 4.035-38.33 7.894-70.36 19.007-93.3 5.529-11.41 12.825-20.5 22.787-26.99 9.968-6.48 22.73-10.43 39.318-11.36zm-170.517 408.2c-49.83 69.9-82.639 144-81.902 216.05.738 72.16 35.125 141.94 119.006 203.06l2.061-2.83c-83.146-60.59-116.843-129.4-117.567-200.27-.726-70.99 31.624-144.36 81.252-213.97zm37.104 419.11c27.906 20.33 58.105 35.11 87.575 47.71 29.579 12.64 58.145 22.98 83.329 34.62 25.115 11.61 46.422 24.34 61.207 41.46 14.727 17.06 23.079 38.6 22.073 68.08l3.498.12c1.034-30.31-7.581-52.72-22.922-70.49-15.282-17.7-37.142-30.67-62.387-42.34-25.176-11.64-54.163-22.16-83.422-34.67-29.369-12.55-59.293-27.22-86.89-47.32zm254.184 191.87c-1.015 29.74 5.573 50.44 16.952 66.71 11.332 16.21 27.326 27.89 44.774 39.74 34.934 23.72 76.23 48.49 101.369 112.1l3.255-1.29c-25.581-64.73-67.781-90.02-102.658-113.71-17.457-11.86-32.948-23.22-43.872-38.84-10.876-15.56-17.316-35.48-16.322-64.59zm163.095 218.55c11.612 29.39 33.65 45.59 56.123 63.86 22.511 18.3 45.755 38.85 60.838 77.01l3.255-1.28c-15.422-39.03-39.248-60.04-61.885-78.44-22.676-18.44-43.866-34.07-55.076-62.44z" fill="url(#i)"/></g></svg>