<svg fill="none" height="1739" viewBox="0 0 306 1739" width="306" xmlns="http://www.w3.org/2000/svg" xmlns:xlink="http://www.w3.org/1999/xlink"><linearGradient id="a"><stop offset="0" stop-color="#7f00ff" stop-opacity=".62"/><stop offset=".239583" stop-color="#ee0979" stop-opacity=".62"/><stop offset=".489583" stop-color="#ff5e62" stop-opacity=".67"/><stop offset=".739583" stop-color="#ff6a00" stop-opacity=".46"/><stop offset="1" stop-color="#ffa800" stop-opacity=".59"/></linearGradient><linearGradient id="b" gradientUnits="userSpaceOnUse" x1="146.798" x2="224.343" xlink:href="#a" y1="-7.38898" y2="2016.18"/><linearGradient id="c" gradientUnits="userSpaceOnUse" x1="163.487" x2="239.072" xlink:href="#a" y1="-6.57815" y2="1965.85"/><linearGradient id="d" gradientUnits="userSpaceOnUse" x1="190.244" x2="250.983" xlink:href="#a" y1="328.872" y2="1913.89"/><clipPath id="e"><path d="m0 0h306v1739h-306z" transform="matrix(1 0 .00000001 -1 0 1739)"/></clipPath><g clip-path="url(#e)"><path d="m184.472 365.62-1.786-.901zm-97.8524 423.557-1.907.603zm155.4044 277.253 1.783-.91zm28.51 313.14-1.159-1.63zm-181.8592-32.06.8455 1.81zm58.2542 214.42-.801 1.84zm186.159 209.53-1.847.77zm-307.4046-1772.207758c68.2968 0 127.4286 51.645658 159.5966 123.495758 32.142 71.792 37.088 163.246-2.594 241.971l3.572 1.801c40.301-79.954 35.231-172.683 2.673-245.406-32.532-72.6634-92.7864-125.86176-163.2476-125.86176zm157.0026 365.466758c-38.036 75.461-72.778 149.242-92.8894 220.34-20.1162 71.114-25.6424 139.702-5.084 204.721l3.8139-1.206c-20.2403-64.013-14.8738-131.748 5.1191-202.427 19.9974-70.695 54.5814-144.176 92.6124-219.627zm-97.9734 425.061c12.8314 40.581 37.3844 81.661 65.8174 126.659 28.473 45.061 60.887 94.121 89.711 150.901l3.566-1.82c-28.931-56.98-61.476-106.242-89.896-151.218-28.459-45.039-52.731-85.708-65.3845-125.728zm155.5284 277.56c34.605 68.15 59.931 133.17 67.512 187.55 7.581 54.39-2.631 97.61-38.378 123.05l2.319 3.26c37.522-26.7 47.692-71.83 40.02-126.86-7.672-55.04-33.236-120.53-67.907-188.82zm29.134 310.6c-21.227 15.1-38.382 18.47-53.257 15.85-15-2.63-28.018-11.39-40.894-21.3-12.738-9.81-25.429-20.83-39.355-27.19-14.12-6.46-29.624-8.2-48.0398.4l1.6911 3.62c17.2237-8.04 31.4947-6.41 44.6857-.39 13.384 6.12 25.538 16.69 38.578 26.73 12.903 9.93 26.597 19.25 42.641 22.07 16.169 2.84 34.389-.96 56.269-16.53zm-181.5458-32.24c-32.1261 14.98-49.5425 55.72-43.0248 99.33 6.5412 43.77 37.1356 90.67 101.3236 118.74l1.602-3.67c-63.0346-27.56-92.6487-73.37-98.9696-115.66-6.3444-42.45 10.7234-81.11 40.7599-95.12zm58.2988 218.07c92.972 40.65 148.83 121.03 185.113 208.46l3.695-1.54c-36.484-87.91-92.905-169.35-187.206-210.59zm185.113 208.46c9.873 23.79 21.966 65.21 31.394 109.79 9.429 44.58 16.151 92.12 15.363 128.15l3.999.09c.798-36.49-5.996-84.38-15.448-129.07-9.454-44.7-21.608-86.39-31.613-110.5z" fill="url(#b)"/><path d="m188.364 470.944 1.736.994zm-75.305 394.509 1.907-.604zm139.233 247.907-1.782.91zm25.525 280 1.158 1.63zm-162.957-28.65-.844-1.82zm52.185 191.73.8-1.83zm166.796 187.34 1.869-.71zm-146.577-1749.64058c44.788 29.46518 78.1 89.85678 83.464 172.29058 5.362 82.397-17.229 186.676-84.1 303.521l3.472 1.987c67.178-117.382 90.042-222.436 84.619-305.768-5.42-83.2949-39.133-145.0279-85.256-175.37225zm-.636 475.81158c-75.427 131.794-112.2693 279.957-75.476 396.106l3.814-1.208c-36.3049-114.605-.049-261.544 75.134-392.911zm-75.476 396.106c11.505 36.316 33.518 73.069 58.991 113.302 25.514 40.291 54.548 84.151 80.367 134.911l3.565-1.82c-25.926-50.96-55.093-95.02-80.552-135.231-25.5-40.274-47.231-76.616-58.557-112.37zm139.358 248.213c31 60.93 53.676 119.04 60.46 167.63 6.785 48.6-2.371 87.15-34.311 109.83l2.316 3.26c33.717-23.94 42.832-64.39 35.957-113.64-6.876-49.25-29.791-107.83-60.857-168.9zm26.149 277.46c-18.988 13.48-34.306 16.47-47.569 14.15-13.387-2.35-25.017-10.15-36.552-19.01-11.398-8.76-22.797-18.64-35.304-24.34-12.699-5.79-26.655-7.35-43.218.36l1.689 3.63c15.373-7.16 28.098-5.71 39.87-.35 11.964 5.46 22.826 14.88 34.526 23.87 11.563 8.88 23.867 17.25 38.298 19.78 14.554 2.55 30.935-.88 50.576-14.83zm-162.643-28.84c-28.8963 13.46-44.5258 50-38.6791 89.06 5.8702 39.21 33.3341 81.2 90.9081 106.32l1.6-3.66c-56.423-24.62-82.9032-65.52-88.5521-103.26-5.6724-37.89 9.6041-72.35 36.4121-84.83zm52.229 195.38c83.266 36.33 135.626 107.22 165.727 186.22l3.738-1.42c-30.355-79.67-83.328-151.58-167.865-188.46zm165.727 186.22c32.102 84.26 41.157 161.39 47.62 216.14l3.972-.47c-6.463-54.76-15.559-132.33-47.854-217.09z" fill="url(#c)"/><path d="m190.759 590.563-1.765-.94zm-53.336 351.039 1.899-.628zm127.978 217.388 1.765-.94zm23.063 245.75-1.122-1.65zm-150.23-24.87.813 1.82zm47.798 168.22.765-1.85zm153.501 164.17-1.834.8zm-20.885-1388.385c0 28.687-15.607 63.756-39.815 107.577-24.071 43.571-56.696 95.885-89.839 158.171l3.531 1.879c33.203-62.398 65.522-114.153 89.809-158.116 24.15-43.715 40.314-79.647 40.314-109.511zm-129.654 265.748c-63.246 118.858-87.212 250.683-53.47 352.608l3.798-1.257c-33.276-100.516-9.747-231.169 53.203-349.472zm-53.47 352.608c10.562 31.904 30.822 64.159 54.242 99.429 23.464 35.34 50.155 73.77 73.87 118.27l3.53-1.88c-23.83-44.71-50.662-83.35-74.068-118.6-23.45-35.32-43.407-67.153-53.776-98.476zm128.112 217.699c28.481 53.43 49.273 104.37 55.439 146.95 6.163 42.57-2.327 76.3-31.733 96.21l2.243 3.31c31.222-21.14 39.717-56.79 33.449-100.09-6.266-43.28-27.319-94.7-55.868-148.26zm23.706 243.16c-17.51 11.85-31.622 14.49-43.832 12.48-12.319-2.04-23.01-8.85-33.626-16.6-10.485-7.66-21.001-16.33-32.543-21.32-11.724-5.07-24.61-6.42-39.919.39l1.625 3.65c14.168-6.3 25.881-5.05 36.706-.37 11.006 4.76 20.986 13 31.772 20.88 10.655 7.78 22.008 15.12 35.333 17.32 13.435 2.21 28.567-.83 46.727-13.12zm-149.92-25.05c-26.741 11.89-41.2825 44.11-35.936 78.52 5.367 34.54 30.705 71.41 83.782 93.38l1.529-3.7c-51.966-21.5-76.234-57.31-81.359-90.3-5.145-33.11 8.935-63.27 33.609-74.25zm47.846 171.9c76.653 31.72 122.618 94.62 152.431 163.12l3.667-1.6c-30.04-69.02-76.6-132.96-154.569-165.22zm152.431 163.12c8.085 18.58 17.546 53.84 25.036 91.44 7.485 37.58 12.953 77.23 13.132 104.54l4-.03c-.182-27.68-5.706-67.62-13.21-105.29-7.499-37.64-17.025-73.26-25.291-92.26z" fill="url(#d)"/></g></svg>