<svg fill="none" height="102" viewBox="0 0 191 102" width="191" xmlns="http://www.w3.org/2000/svg" xmlns:xlink="http://www.w3.org/1999/xlink"><filter id="a" color-interpolation-filters="sRGB" filterUnits="userSpaceOnUse" height="101.004" width="190.758" x=".242188" y=".789062"><feFlood flood-opacity="0" result="BackgroundImageFix"/><feBlend in="SourceGraphic" in2="BackgroundImageFix" mode="normal" result="shape"/><feGaussianBlur result="effect1_foregroundBlur_1689_11719" stdDeviation="8"/></filter><g filter="url(#a)"><path d="m16.2422 42.9614c0-18.823 17.2433-26.1723 36.0663-26.1723h88.6105c10.317 0 14.515 9.5858 17.915 22.8767 5.153 5.9712 16.168 2.6992 16.168 11.2054s-8.27 12.9838-8.27 22.2558c0 1.3488-.028 2.6198-.085 3.8177-.937 19.8825-23.047.0436-42.952.0436-31.6389 0-67.7551 0-67.7551 0-24.4755 0-39.6977-15.2039-39.6977-34.0269z" fill="#080010"/></g><g fill="#fff"><path d="m80.1321 47.595c.1432.0283.2578.0567.4011.0567.7735 0 1.4898-.5385 1.6617-1.3037.2292-.9069-.3438-1.8421-1.2893-2.0405-.1432-.0283-3.6958-.8502-11.374-1.1903-.1146 0-.2292 0-.3724-.0283.5157-3.0324.9454-6.4049 1.2892-10.1175 6.6754.9352 10.801 1.332 12.5487.8502 1.9482-.5384 3.2947-1.5304 3.9537-2.9757.7735-1.6154.6016-3.6559-.5157-6.0932-.4011-.8502-1.4039-1.2469-2.2634-.8502-.8595.3968-1.2606 1.3887-.8595 2.2389.659 1.4454.8309 2.6073.5157 3.2591-.2292.4818-.8308.8786-1.7763 1.1337-1.8622.5101-12.1475-1.0486-20.3987-2.3239-12.0043-1.8422-24.4098-3.741-29.051-2.8341-4.9278.9636-9.0821 4.4494-10.314 8.6438-1.0314 3.4858.1146 6.9717 3.1801 9.8341.3438.3117.7449.4534 1.1747.4534.4584 0 .9168-.17 1.2606-.5385.6589-.6801.6016-1.7571-.086-2.4089-2.1201-1.9555-2.8936-4.166-2.2347-6.4049.8595-2.9757 4.0397-5.5263 7.7069-6.2348 4.0682-.7936 17.2472 1.2469 27.8763 2.8623 2.1201.3118 4.097.6235 5.9019.8786-.3438 3.8826-.8022 7.3968-1.3465 10.5142-6.0165-.1133-11.0016.1134-11.0589.1134-.9454.0567-1.6903.8502-1.633 1.7854s.8595 1.6721 1.8049 1.6154c.0573 0 4.6126-.1984 10.228-.1134-1.1173 5.158-2.5498 9.0122-4.2975 11.4495-5.1856 7.3118-12.9211 5.6114-15.1558 4.9029-4.7272-1.4737-8.1652-5.0163-8.1652-8.4171 0-.9352-.7736-1.7004-1.719-1.7004s-1.719.7652-1.719 1.7004c0 4.9029 4.3548 9.6924 10.5718 11.6478 1.6904.5385 3.5526.8503 5.5008.8503 4.6986 0 9.7983-1.8422 13.4941-7.0284 2.0915-2.9474 3.7532-7.3401 4.9851-13.3199.2865 0 .573.0283.8309.0283 7.3057.3401 10.715 1.1053 10.7437 1.1053z"/><path d="m167.915 61.3967c.029-.9352-.716-1.7288-1.661-1.7571-.946-.0284-1.748.7085-1.777 1.6437-.028 1.2753-.687 2.5223-1.719 3.7693-.315-3.5426-.802-7.5669-1.432-12.1863-.115-.9069-.974-1.5587-1.891-1.4454-.917.1134-1.604.9069-1.518 1.8138.401 4.8178-.573 7.8786-2.894 9.0689-.802.4251-1.948.7368-2.98-.1134-1.174-.9636-1.948-3.3441-1.002-6.4899.2-.3968.401-.8219.601-1.2753.401-.8502.029-1.8705-.831-2.2672-.859-.3968-1.89-.0284-2.292.8218-4.011 8.5304-5.901 8.4738-5.901 8.4738s-.917-.2268-1.949-3.6843c-.257-.8785-.487-1.8704-.716-2.8623.086-.1134.172-.2268.258-.3401 3.151-5.498 5.214-12.5547 5.615-19.4131.201-3.2308.23-11.0527-3.466-13.575-1.089-.7368-2.292-.7935-3.324-.1417-.716.4251-2.865 1.7571-3.753 11.4495-.458 5.2429-.401 11.3361.201 15.8705.258 1.8988.515 3.6276.802 5.243-.487.9635-1.461 2.4372-3.323 4.3644-1.805 1.8421-2.837 2.6073-3.381 2.919-.115-1.1336.143-3.4008.315-4.8745.458-3.911.831-7-1.318-7.992-1.862-.8502-3.896.6802-6.332 3.2875-1.489 1.5871-2.75 3.5142-3.781 5.2996l3.237-7.1984c2.779-6.1498 3.954-19.5548-.229-24.741-1.232-1.5304-2.464-1.3887-3.094-1.162-1.633.5668-2.751 2.6073-3.266 10.9677-.23 3.7976-.315 8.5871-.258 14.2552.028 1.7004.028 3.3441.028 4.9028-3.81 6.2632-6.704 7.8786-8.022 7.3118-1.604-.6802-2.435-4.4211-1.604-7.1417.716-2.3523 1.862-2.7774 2.206-2.8341.344-.085.659 0 .86.2268.286.3117.315.8785.057 1.5303-.315.8786.143 1.8705 1.031 2.1822.888.3118 1.891-.1417 2.206-1.0202.659-1.8705.401-3.6559-.716-4.9312-1.031-1.162-2.607-1.6438-4.183-1.332-2.12.4534-3.81 2.2672-4.698 4.9595-.029.085-.086.1417-.115.2267-2.6358 6.8301-4.7845 8.3888-5.6726 8.2187-1.0028-.17-2.292-2.2672-3.0942-5.6964.9168-1.8704 1.7476-4.0243 2.6644-6.5182.659-1.8705 1.4325-5.7531 1.2606-9.4373h12.7208c.945 0 1.719-.7652 1.719-1.7004 0-.9353-.774-1.7005-1.719-1.7005h-13.1792c-.3151-1.2753-.8308-2.4089-1.5757-3.2591-1.2606-1.4453-2.5212-1.1619-3.0369-.9919-1.2033.4534-1.9482 1.7004-2.4066 4.251h-8.022c-.9455 0-1.719.7652-1.719 1.7005 0 .9352.7735 1.7004 1.719 1.7004h7.5636c-.2579 3.0607-.2865 6.4615-.2865 8.8705.0286 2.2388.2292 4.5061.6303 6.6316-1.4612 2.6923-3.0942 4.4777-5.4435 5.6964-.8022.4251-1.9482.7368-2.9796-.1134-.0573-.0567-.1146-.085-.1719-.1417 2.5212-.9352 4.3834-3.0607 5.5867-6.3482.659-1.8705.4011-3.6559-.7162-4.9312-1.0314-1.162-2.6072-1.6437-4.1829-1.332-2.1774.4534-3.8964 2.3522-4.7845 5.1863-1.2606 4.1093-.4584 8.1053 2.0914 10.1741 1.8909 1.5304 4.4121 1.7288 6.79.4818 2.0628-1.0769 3.6959-2.4939 5.0711-4.3077 1.1173 2.749 2.7217 4.7328 4.8705 5.1012.2578.0567.5157.0567.7735.0567 2.0055 0 3.9254-1.417 5.7304-4.2794.659 1.7571 1.747 3.1741 3.352 3.8543.573.2551 1.203.3968 1.919.3968 1.948 0 4.441-1.1336 7.449-4.8179v2.9191c0 1.332.487 2.1538 1.49 2.3806.143.0283.286.0566.43.0566 1.117 0 1.719-1.0769 1.948-1.4453.258-.4251.544-1.0203.888-1.7288 1.146-2.2955 2.865-5.753 5.157-8.1903.974-1.0203 1.633-1.6154 2.091-1.9555 0 1.1053-.2 2.8057-.343 3.9393-.487 4.0243-.888 7.5102 1.461 8.6154 1.805.8503 3.982-.2834 7.506-3.9109.745-.7652 1.347-1.4737 1.891-2.1255 1.089 3.6842 2.521 5.8947 4.785 6.2348.2.0284.401.0567.573.0567 1.633 0 3.237-1.0769 4.985-3.4008.429 1.332 1.174 2.4939 2.206 3.3441 1.891 1.5304 4.412 1.7288 6.79.4818 1.002-.5101 1.833-1.2186 2.521-2.0688.172 1.7571.315 3.3725.458 4.8745-.802.6802-1.661 1.3887-2.55 2.0972-4.125 3.3441-8.824 7.1134-10.142 12.1863-.916 3.4858.86 7.6802 4.04 9.5506 1.117.6519 2.292.9636 3.467.9636 1.919 0 3.896-.8502 5.701-2.4939 1.891-1.7288 3.982-5.8948 3.008-20.8585 2.607-2.3239 4.613-4.9028 4.727-8.0769zm-87.8402-7.0001c.7162-2.3522 1.8622-2.7773 2.206-2.834.086-.0283.1719-.0283.2579-.0283.2578 0 .487.085.6303.255.2865.3118.3151.8786.0573 1.5304-.8309 2.3239-2.0055 3.7409-3.5813 4.3077-.0573-.9352.0573-2.0405.4298-3.2308zm12.4341-6.2632c-.086.2268-.1433.4251-.2292.6519 0-.0284 0-.0567 0-.0851-.0287-3.7692.0859-6.6882.2865-8.8421h1.0027c.1146 2.834-.3151 6.2348-1.06 8.2753zm26.8451-19.9231c2.206 4.421 1.547 15.0203-.831 20.2632l-.286.6235c-.144-13.4899.601-18.8179 1.117-20.8867zm19.281 5.2146c.487-5.6398 1.433-8.0487 1.948-8.8139.975.9636 2.149 4.3078 1.777 10.4009-.287 4.9312-1.49 9.9758-3.381 14.3402-.057-.3401-.086-.6802-.143-.9919-.545-4.2511-.631-9.9758-.201-14.9353zm19.11 54.5549c-1.232 1.1336-3.123 2.2389-5.071 1.1053-1.834-1.0769-3.009-3.7976-2.493-5.7814 1.032-3.996 5.071-7.2551 8.996-10.4009.201-.17.43-.3401.631-.5101.515 11.0527-.889 14.5385-2.063 15.5871z"/></g></svg>